<?xml version="1.0" standalone="no"?>
<!DOCTYPE svg PUBLIC "-//W3C//DTD SVG 20010904//EN"
 "http://www.w3.org/TR/2001/REC-SVG-20010904/DTD/svg10.dtd">
<svg version="1.0" xmlns="http://www.w3.org/2000/svg"
 width="2048.000000pt" height="2048.000000pt" viewBox="0 0 2048.000000 2048.000000"
 preserveAspectRatio="xMidYMid meet">
<metadata>
Created by potrace 1.16, written by Peter Selinger 2001-2019
</metadata>
<g transform="translate(0.000000,2048.000000) scale(0.100000,-0.100000)"
fill="#000000" stroke="none">
<path d="M11276 11759 c-207 -27 -422 -117 -638 -269 -56 -39 -157 -128 -254
-225 -229 -228 -346 -367 -688 -823 -108 -144 -200 -262 -204 -262 -4 0 -47
68 -97 152 -349 593 -668 836 -1153 878 -199 18 -440 -18 -594 -88 -94 -43
-166 -92 -243 -168 -50 -51 -63 -69 -55 -79 9 -11 24 -5 78 26 161 95 338 142
532 143 165 1 256 -20 405 -94 178 -88 325 -237 510 -515 105 -157 335 -555
335 -578 0 -18 -168 -236 -324 -422 -385 -458 -684 -665 -1091 -754 -153 -34
-302 -44 -530 -38 -283 8 -538 42 -1180 156 -517 92 -776 126 -1077 142 -506
26 -828 -68 -974 -285 -18 -27 -32 -52 -29 -54 2 -2 32 5 67 17 157 52 422 72
693 52 210 -16 610 -66 1205 -151 591 -84 849 -110 1181 -117 274 -6 409 3
584 38 295 60 558 191 784 391 157 138 296 300 583 682 88 116 164 211 170
211 5 0 51 -73 103 -162 117 -204 189 -314 280 -422 265 -319 574 -471 955
-471 201 0 378 50 528 150 101 67 185 149 173 168 -5 9 -31 0 -102 -37 -268
-140 -541 -145 -802 -15 -243 122 -443 372 -770 963 l-85 154 140 186 c544
718 954 1090 1340 1215 118 38 191 49 328 49 187 0 331 -39 433 -117 26 -20
52 -34 56 -31 17 10 33 109 28 171 -6 78 -31 122 -95 164 -102 68 -302 95
-506 69z"/>
<path d="M4535 11589 c-493 -72 -899 -404 -1063 -869 -118 -335 -103 -743 37
-1035 157 -327 436 -523 818 -575 131 -18 393 -8 500 19 290 73 506 232 654
483 64 109 65 113 21 143 -44 30 -59 31 -67 5 -15 -47 -113 -180 -185 -249
-156 -153 -332 -227 -561 -238 -150 -7 -251 12 -375 72 -182 88 -323 258 -398
479 -69 202 -78 496 -25 761 67 330 243 614 480 776 133 90 246 123 404 117
94 -4 119 -9 172 -33 141 -63 223 -219 223 -425 0 -227 -103 -408 -252 -444
-49 -11 -36 -43 30 -74 52 -24 68 -27 172 -27 97 0 124 4 173 24 74 29 151 92
199 161 132 187 122 478 -21 670 -105 140 -274 225 -516 260 -84 12 -336 11
-420 -1z"/>
<path d="M13474 11462 c-52 -21 -73 -38 -106 -82 -63 -83 -59 -200 9 -280 47
-55 102 -79 176 -80 135 0 238 98 238 229 1 101 -39 166 -126 207 -60 28 -132
31 -191 6z"/>
<path d="M12663 11222 c-6 -4 -26 -43 -43 -87 -96 -242 -255 -380 -485 -419
l-69 -12 -8 -39 c-14 -64 -11 -65 112 -65 73 0 110 -4 110 -11 0 -6 -38 -243
-84 -527 -102 -620 -101 -611 -86 -692 28 -154 109 -234 264 -260 110 -20 234
12 357 91 67 43 239 210 239 232 0 14 -41 57 -54 57 -5 0 -32 -24 -60 -53 -66
-68 -127 -97 -206 -97 -52 0 -64 4 -94 30 -44 39 -57 94 -46 193 8 68 94 624
125 807 8 47 19 118 26 158 l11 72 174 0 c131 0 176 3 178 13 3 6 7 38 10 70
l6 57 -175 0 -176 0 6 33 c15 88 65 428 65 442 0 11 -11 15 -42 15 -24 0 -48
-4 -55 -8z"/>
<path d="M15170 10814 c-59 -16 -128 -52 -151 -80 -12 -15 -10 -20 21 -43 89
-66 129 -126 156 -233 50 -194 -65 -465 -355 -842 l-84 -108 -47 233 c-112
554 -196 837 -279 932 -71 80 -196 112 -330 83 -73 -15 -241 -90 -241 -107 0
-4 5 -19 11 -32 10 -23 15 -25 68 -20 122 10 174 -66 270 -393 22 -77 56 -206
76 -285 42 -175 151 -686 160 -751 l7 -48 87 0 87 0 44 63 c24 34 94 130 155
212 424 572 510 695 587 850 64 127 89 214 90 310 2 206 -134 312 -332 259z"/>
<path d="M6686 10759 c-154 -36 -337 -223 -462 -471 -19 -38 -35 -68 -37 -68
-2 0 1 39 7 88 11 102 -3 229 -32 295 -21 48 -70 100 -115 124 -48 24 -151 28
-227 9 -62 -16 -178 -75 -229 -117 -21 -17 -23 -24 -15 -47 7 -19 16 -26 30
-24 78 15 100 13 134 -10 100 -67 100 -154 0 -758 -22 -129 -51 -316 -65 -415
-14 -99 -28 -190 -31 -202 l-4 -23 189 0 189 0 6 28 c3 15 28 169 56 342 28
173 58 341 66 374 49 188 194 446 296 527 79 62 155 77 196 39 48 -45 38 -127
-28 -222 l-40 -57 37 -10 c65 -18 176 -13 240 11 65 24 148 99 181 164 66 130
38 315 -57 384 -66 47 -183 63 -285 39z"/>
<path d="M7835 10755 c-391 -73 -677 -329 -777 -696 -30 -111 -33 -356 -4
-459 34 -126 82 -208 170 -295 88 -88 176 -139 296 -172 102 -28 338 -25 450
5 221 60 434 207 557 385 l28 40 -39 33 -39 34 -20 -32 c-56 -93 -205 -200
-332 -241 -100 -32 -273 -31 -365 1 -163 56 -273 209 -296 410 l-6 59 143 7
c521 25 811 140 920 363 32 64 34 74 34 173 0 99 -2 109 -33 172 -49 99 -130
162 -262 203 -78 24 -318 29 -425 10z m238 -119 c42 -17 83 -66 97 -114 25
-92 3 -249 -47 -331 -30 -47 -97 -112 -153 -146 -106 -64 -295 -114 -437 -115
-85 0 -81 -8 -58 123 18 103 61 225 110 313 44 78 142 186 201 220 101 59 217
80 287 50z"/>
<path d="M11240 10763 c-480 -51 -878 -404 -1001 -888 -19 -74 -23 -117 -24
-245 0 -137 3 -163 24 -228 36 -109 88 -184 163 -232 83 -54 125 -65 248 -64
118 0 203 24 308 86 73 43 225 194 281 281 24 37 44 67 45 67 1 0 2 -51 1
-112 0 -97 3 -120 23 -163 60 -131 180 -180 347 -141 77 18 273 109 281 131 5
13 -21 75 -32 75 -2 0 -23 -9 -46 -21 -75 -38 -140 -22 -174 44 -31 59 -24
150 46 582 94 575 121 758 113 765 -11 11 -195 47 -303 60 -80 10 -225 11
-300 3z m210 -155 c0 -25 -59 -409 -90 -588 -42 -238 -112 -397 -231 -525
-115 -122 -263 -170 -366 -117 -85 44 -124 139 -124 306 1 357 203 734 474
882 76 41 161 62 255 63 79 1 82 0 82 -21z"/>
<path d="M16316 10754 c-393 -78 -672 -342 -772 -729 -26 -103 -24 -313 5
-420 53 -199 159 -334 332 -419 130 -64 208 -79 384 -73 167 6 244 25 390 97
125 62 250 160 333 264 l64 79 -37 36 c-34 34 -36 35 -47 16 -24 -46 -156
-162 -225 -198 -174 -91 -386 -103 -543 -29 -117 55 -205 186 -236 351 -9 45
-14 84 -12 86 2 1 77 8 168 14 307 21 498 60 657 137 210 100 318 281 285 475
-15 86 -41 138 -95 192 -98 97 -228 137 -441 136 -78 0 -172 -7 -210 -15z
m270 -120 c114 -54 127 -294 24 -453 -92 -143 -296 -237 -552 -256 l-98 -7 0
41 c0 100 54 282 122 406 36 67 145 186 203 223 94 60 229 80 301 46z"/>
<path d="M13365 10750 c-70 -13 -154 -45 -233 -89 -71 -41 -80 -55 -58 -84 12
-16 19 -17 59 -6 40 10 51 9 83 -7 63 -32 79 -63 78 -152 -1 -44 -35 -269 -79
-527 -83 -490 -86 -527 -44 -625 53 -123 185 -175 344 -135 70 17 225 93 274
133 33 28 33 28 17 60 -9 18 -19 32 -22 32 -2 0 -22 -9 -44 -20 -52 -26 -119
-26 -153 1 -58 45 -59 112 -2 469 84 528 95 608 95 686 0 129 -35 200 -122
245 -44 23 -126 31 -193 19z"/>
</g>
</svg>
