<svg preserveAspectRatio="none" width="100%" height="100%" overflow="visible" style="display: block;" viewBox="0 0 222 473" fill="none" xmlns="http://www.w3.org/2000/svg">
<g id="S20">
<path id="Volume Button" d="M219.566 85.8516H220.132C220.757 85.8516 221.264 86.362 221.264 86.9916V143.597C221.264 144.227 220.757 144.737 220.132 144.737H219.566V85.8516Z" fill="var(--fill-0, #121515)"/>
<path id="Power Button" d="M219.566 176.656H220.132C220.757 176.656 221.264 177.167 221.264 177.796V206.335C221.264 206.964 220.757 207.475 220.132 207.475H219.566V176.656Z" fill="var(--fill-0, #121515)"/>
<path id="Device Surround" d="M0 48.0989C0 26.6836 0 15.9759 6.23687 8.8743C7.12251 7.86586 8.08827 6.92666 9.12522 6.06538C16.4277 0 27.4381 0 49.4589 0H170.107C192.128 0 203.138 0 210.441 6.06538C211.478 6.92666 212.443 7.86586 213.329 8.8743C219.566 15.9759 219.566 26.6836 219.566 48.0989V424.085C219.566 445.5 219.566 456.208 213.329 463.31C212.443 464.318 211.478 465.257 210.441 466.119C203.138 472.184 192.128 472.184 170.107 472.184H49.4589C27.4381 472.184 16.4277 472.184 9.12522 466.119C8.08827 465.257 7.12251 464.318 6.23687 463.31C0 456.208 0 445.5 0 424.085V48.0989Z" fill="var(--fill-0, #3A4245)"/>
<path id="Device BG" d="M1.13178 44.4942C1.13178 26.492 1.13178 17.4909 6.11276 11.3463C7.24221 9.95295 8.5367 8.69406 9.96939 7.59567C16.2877 2.75165 25.5434 2.75165 44.0546 2.75165H175.511C194.023 2.75165 203.278 2.75165 209.596 7.59567C211.029 8.69406 212.324 9.95295 213.453 11.3463C218.434 17.4909 218.434 26.492 218.434 44.4943V427.69C218.434 445.692 218.434 454.693 213.453 460.838C212.324 462.231 211.029 463.49 209.596 464.588C203.278 469.432 194.023 469.432 175.511 469.432H44.0546C25.5434 469.432 16.2877 469.432 9.96939 464.588C8.5367 463.49 7.24221 462.231 6.11276 460.838C1.13178 454.693 1.13178 445.692 1.13178 427.69V44.4942Z" fill="var(--fill-0, #121515)"/>
</g>
</svg>
