<svg width="503" height="135" viewBox="0 0 503 135" fill="none" xmlns="http://www.w3.org/2000/svg">
<path d="M153.112 49.7376V63.1765H171.161V71.7006H153.112V85.9073H173.466V94.6618H142.358V40.9832H173.466V49.7376H153.112Z" fill="#00E1C6"/>
<path d="M120.805 94.6635L108.977 73.7757H103.907V94.6635H93.1538V41.0615H113.278C117.426 41.0615 120.959 41.8039 123.877 43.2885C126.796 44.7221 128.972 46.6931 130.406 49.2017C131.891 51.6591 132.633 54.4237 132.633 57.4954C132.633 61.0279 131.609 64.2277 129.561 67.0947C127.513 69.9104 124.466 71.8558 120.421 72.9309L133.248 94.6635H120.805ZM103.907 65.7124H112.894C115.812 65.7124 117.989 65.0212 119.423 63.6389C120.856 62.2054 121.573 60.2344 121.573 57.7258C121.573 55.2684 120.856 53.3742 119.423 52.043C117.989 50.6607 115.812 49.9696 112.894 49.9696H103.907V65.7124Z" fill="#00E1C6"/>
<path d="M31.5854 67.7852C31.5854 62.512 32.7632 57.802 35.1186 53.6551C37.5253 49.4571 40.7768 46.2061 44.8732 43.9024C49.0208 41.5474 53.6548 40.3699 58.7753 40.3699C64.7664 40.3699 70.0149 41.9057 74.521 44.9775C79.027 48.0492 82.176 52.2984 83.9685 57.7252H71.6022C70.3733 55.1654 68.6323 53.2456 66.3793 51.9657C64.1775 50.6858 61.6172 50.0458 58.6986 50.0458C55.5751 50.0458 52.7843 50.7882 50.3265 52.2728C47.9198 53.7064 46.0253 55.7542 44.6428 58.4164C43.3114 61.0786 42.6458 64.2015 42.6458 67.7852C42.6458 71.3177 43.3114 74.4406 44.6428 77.1541C46.0253 79.8165 47.9198 81.8896 50.3265 83.3746C52.7843 84.8075 55.5751 85.5244 58.6986 85.5244C61.6172 85.5244 64.1775 84.8849 66.3793 83.6044C68.6323 82.2733 70.3733 80.3281 71.6022 77.7683H83.9685C82.176 83.2459 79.027 87.521 74.521 90.5928C70.0661 93.6133 64.8176 95.1236 58.7753 95.1236C53.6548 95.1236 49.0208 93.9717 44.8732 91.6681C40.7768 89.3131 37.5253 86.062 35.1186 81.9149C32.7632 77.7683 31.5854 73.0583 31.5854 67.7852Z" fill="#00E1C6"/>
<path d="M452.245 49.7381V63.177H470.295V71.7011H452.245V85.9082H472.599V94.6626H441.492V40.9836H472.599V49.7381H452.245Z" fill="#00E1C6"/>
<path d="M435.045 41.0588L415.382 94.6611H402.325L382.662 41.0588H394.184L408.93 83.6795L423.601 41.0588H435.045Z" fill="#00E1C6"/>
<path d="M376.263 41.0588V94.6611H365.51V41.0588H376.263Z" fill="#00E1C6"/>
<path d="M357.664 41.0588V49.7366H343.378V94.6611H332.624V49.7366H318.338V41.0588H357.664Z" fill="#00E1C6"/>
<path d="M299.073 84.4492H277.722L274.188 94.6626H262.898L282.176 40.9836H294.696L313.975 94.6626H302.607L299.073 84.4492ZM296.155 75.848L288.398 53.4242L280.64 75.848H296.155Z" fill="#00E1C6"/>
<path d="M205.342 88.6302C205.342 88.6302 202.339 88.8181 202.339 91.6326C202.339 90.3189 201.213 88.6302 199.336 88.6302C201.4 88.6302 202.339 86.9415 202.339 85.4399C202.339 88.4431 205.342 88.6302 205.342 88.6302Z" fill="#00E1C6"/>
<path d="M201.551 102.891H190.368C189.932 102.891 189.578 102.537 189.578 102.101V89.4184C189.578 88.9824 189.932 88.6289 190.368 88.6289H201.551C201.987 88.6289 202.341 88.9824 202.341 89.4184V102.101C202.341 102.537 201.987 102.891 201.551 102.891Z" fill="#00E1C6"/>
<path d="M201.551 31.5789H190.368C189.932 31.5789 189.578 31.9323 189.578 32.3683V45.0511C189.578 45.4871 189.932 45.8405 190.368 45.8405H201.551C201.987 45.8405 202.341 45.4871 202.341 45.0511V32.3683C202.341 31.9323 201.987 31.5789 201.551 31.5789Z" fill="#00E1C6"/>
<path d="M214.313 45.8428H203.13C202.694 45.8428 202.34 46.1962 202.34 46.6322V59.315C202.34 59.751 202.694 60.1045 203.13 60.1045H214.313C214.75 60.1045 215.103 59.751 215.103 59.315V46.6322C215.103 46.1962 214.75 45.8428 214.313 45.8428Z" fill="#00E1C6"/>
<path d="M205.342 45.8431C205.342 45.8431 202.339 45.6554 202.339 42.8406C202.339 44.1542 201.213 45.8431 199.336 45.8431C201.401 45.8431 202.339 47.5319 202.339 49.0332C202.339 46.0308 205.342 45.8431 205.342 45.8431Z" fill="#00E1C6"/>
<path d="M218.107 60.1021C218.107 60.1021 215.104 59.9144 215.104 57.0996C215.104 58.4131 213.978 60.1021 212.101 60.1021C214.166 60.1021 215.104 61.7909 215.104 63.2922C215.104 60.2897 218.107 60.1021 218.107 60.1021Z" fill="#00E1C6"/>
<path d="M221.55 60.106H221.421C217.932 60.106 215.104 62.9336 215.104 66.4217V68.0518C215.104 71.54 217.932 74.3676 221.421 74.3676H221.55C225.039 74.3676 227.867 71.54 227.867 68.0518V66.4217C227.867 62.9336 225.039 60.106 221.55 60.106Z" fill="#00E1C6"/>
<path d="M241.417 31.5798H252.601C253.037 31.5798 253.39 31.9333 253.39 32.3693V45.052C253.39 45.4881 253.037 45.8415 252.601 45.8415H241.417C240.981 45.8415 240.628 45.4881 240.628 45.052V32.3693C240.628 31.9333 240.981 31.5798 241.417 31.5798Z" fill="#00E1C6"/>
<path d="M228.655 45.8435H239.839C240.275 45.8435 240.628 46.197 240.628 46.633V59.3157C240.628 59.7517 240.275 60.1052 239.839 60.1052H228.655C228.219 60.1052 227.865 59.7517 227.865 59.3157V46.633C227.865 46.197 228.219 45.8435 228.655 45.8435Z" fill="#00E1C6"/>
<path d="M237.625 45.8438C237.625 45.8438 240.627 45.6561 240.627 42.8413C240.627 44.1549 241.754 45.8438 243.63 45.8438C241.566 45.8438 240.627 47.5327 240.627 49.0339C240.627 46.0314 237.625 45.8438 237.625 45.8438Z" fill="#00E1C6"/>
<path d="M224.864 60.1029C224.864 60.1029 227.867 59.9152 227.867 57.1003C227.867 58.4139 228.993 60.1029 230.87 60.1029C228.806 60.1029 227.867 61.7917 227.867 63.293C227.867 60.2905 224.864 60.1029 224.864 60.1029Z" fill="#00E1C6"/>
<path d="M221.421 60.1064H221.549C225.038 60.1064 227.866 62.9341 227.866 66.4222V68.0523C227.866 71.5405 225.038 74.3681 221.549 74.3681H221.421C217.932 74.3681 215.103 71.5405 215.103 68.0523V66.4222C215.103 62.9341 217.932 60.1064 221.421 60.1064Z" fill="#00E1C6"/>
<path d="M201.551 102.888H190.368C189.932 102.888 189.578 102.535 189.578 102.099V89.416C189.578 88.98 189.932 88.6265 190.368 88.6265H201.551C201.987 88.6265 202.341 88.98 202.341 89.416V102.099C202.341 102.535 201.987 102.888 201.551 102.888Z" fill="#00E1C6"/>
<path d="M214.313 88.6287H203.13C202.694 88.6287 202.34 88.2752 202.34 87.8392V75.1565C202.34 74.7204 202.694 74.367 203.13 74.367H214.313C214.75 74.367 215.103 74.7204 215.103 75.1565V87.8392C215.103 88.2752 214.75 88.6287 214.313 88.6287Z" fill="#00E1C6"/>
<path d="M218.107 74.3691C218.107 74.3691 215.104 74.5567 215.104 77.3715C215.104 76.0579 213.978 74.3691 212.101 74.3691C214.166 74.3691 215.104 72.6801 215.104 71.179C215.104 74.1814 218.107 74.3691 218.107 74.3691Z" fill="#00E1C6"/>
<path d="M221.55 74.366H221.421C217.932 74.366 215.104 71.5383 215.104 68.0502V66.4201C215.104 62.932 217.932 60.1043 221.421 60.1043H221.55C225.039 60.1043 227.867 62.932 227.867 66.4201V68.0502C227.867 71.5383 225.039 74.366 221.55 74.366Z" fill="#00E1C6"/>
<path d="M241.417 102.888H252.6C253.036 102.888 253.39 102.535 253.39 102.099V89.416C253.39 88.98 253.036 88.6265 252.6 88.6265H241.417C240.98 88.6265 240.627 88.98 240.627 89.416V102.099C240.627 102.535 240.98 102.888 241.417 102.888Z" fill="#00E1C6"/>
<path d="M228.655 88.6287H239.839C240.275 88.6287 240.628 88.2752 240.628 87.8392V75.1564C240.628 74.7204 240.275 74.367 239.839 74.367H228.655C228.219 74.367 227.865 74.7204 227.865 75.1564V87.8392C227.865 88.2752 228.219 88.6287 228.655 88.6287Z" fill="#00E1C6"/>
<path d="M237.624 88.628C237.624 88.628 240.627 88.8159 240.627 91.6304C240.627 90.3175 241.754 88.628 243.63 88.628C241.566 88.628 240.627 86.9393 240.627 85.4377C240.627 88.4409 237.624 88.628 237.624 88.628Z" fill="#00E1C6"/>
<path d="M224.863 74.3691C224.863 74.3691 227.866 74.5567 227.866 77.3715C227.866 76.0579 228.992 74.3691 230.869 74.3691C228.804 74.3691 227.866 72.6801 227.866 71.179C227.866 74.1814 224.863 74.3691 224.863 74.3691Z" fill="#00E1C6"/>
<path d="M215.892 74.366H227.076C227.512 74.366 227.865 74.0125 227.865 73.5765V60.8938C227.865 60.4577 227.512 60.1043 227.076 60.1043H215.892C215.456 60.1043 215.102 60.4577 215.102 60.8938V73.5765C215.102 74.0125 215.456 74.366 215.892 74.366Z" fill="#00E1C6"/>
<path d="M153.112 49.7376V63.1765H171.161V71.7006H153.112V85.9073H173.466V94.6618H142.358V40.9832H173.466V49.7376H153.112Z" fill="#00E1C6"/>
<path d="M120.805 94.6635L108.977 73.7757H103.907V94.6635H93.1538V41.0615H113.278C117.426 41.0615 120.959 41.8039 123.877 43.2885C126.796 44.7221 128.972 46.6931 130.406 49.2017C131.891 51.6591 132.633 54.4237 132.633 57.4954C132.633 61.0279 131.609 64.2277 129.561 67.0947C127.513 69.9104 124.466 71.8558 120.421 72.9309L133.248 94.6635H120.805ZM103.907 65.7124H112.894C115.812 65.7124 117.989 65.0212 119.423 63.6389C120.856 62.2054 121.573 60.2344 121.573 57.7258C121.573 55.2684 120.856 53.3742 119.423 52.043C117.989 50.6607 115.812 49.9696 112.894 49.9696H103.907V65.7124Z" fill="#00E1C6"/>
<path d="M31.5854 67.7852C31.5854 62.512 32.7632 57.802 35.1186 53.6551C37.5253 49.4571 40.7768 46.2061 44.8732 43.9024C49.0208 41.5474 53.6548 40.3699 58.7753 40.3699C64.7664 40.3699 70.0149 41.9057 74.521 44.9775C79.027 48.0492 82.176 52.2984 83.9685 57.7252H71.6022C70.3733 55.1654 68.6323 53.2456 66.3793 51.9657C64.1775 50.6858 61.6172 50.0458 58.6986 50.0458C55.5751 50.0458 52.7843 50.7882 50.3265 52.2728C47.9198 53.7064 46.0253 55.7542 44.6428 58.4164C43.3114 61.0786 42.6458 64.2015 42.6458 67.7852C42.6458 71.3177 43.3114 74.4406 44.6428 77.1541C46.0253 79.8165 47.9198 81.8896 50.3265 83.3746C52.7843 84.8075 55.5751 85.5244 58.6986 85.5244C61.6172 85.5244 64.1775 84.8849 66.3793 83.6044C68.6323 82.2733 70.3733 80.3281 71.6022 77.7683H83.9685C82.176 83.2459 79.027 87.521 74.521 90.5928C70.0661 93.6133 64.8176 95.1236 58.7753 95.1236C53.6548 95.1236 49.0208 93.9717 44.8732 91.6681C40.7768 89.3131 37.5253 86.062 35.1186 81.9149C32.7632 77.7683 31.5854 73.0583 31.5854 67.7852Z" fill="#00E1C6"/>
<path d="M452.245 49.7381V63.177H470.295V71.7011H452.245V85.9082H472.599V94.6626H441.492V40.9836H472.599V49.7381H452.245Z" fill="#00E1C6"/>
<path d="M435.045 41.0588L415.382 94.6611H402.325L382.662 41.0588H394.184L408.93 83.6795L423.601 41.0588H435.045Z" fill="#00E1C6"/>
<path d="M376.263 41.0588V94.6611H365.51V41.0588H376.263Z" fill="#00E1C6"/>
<path d="M357.664 41.0588V49.7366H343.378V94.6611H332.624V49.7366H318.338V41.0588H357.664Z" fill="#00E1C6"/>
<path d="M299.073 84.4492H277.722L274.188 94.6626H262.898L282.176 40.9836H294.696L313.975 94.6626H302.607L299.073 84.4492ZM296.155 75.848L288.398 53.4242L280.64 75.848H296.155Z" fill="#00E1C6"/>
<path d="M205.342 88.6302C205.342 88.6302 202.339 88.8181 202.339 91.6326C202.339 90.3189 201.213 88.6302 199.336 88.6302C201.4 88.6302 202.339 86.9415 202.339 85.4399C202.339 88.4431 205.342 88.6302 205.342 88.6302Z" fill="#00E1C6"/>
<path d="M201.551 102.891H190.368C189.932 102.891 189.578 102.537 189.578 102.101V89.4184C189.578 88.9824 189.932 88.6289 190.368 88.6289H201.551C201.987 88.6289 202.341 88.9824 202.341 89.4184V102.101C202.341 102.537 201.987 102.891 201.551 102.891Z" fill="#00E1C6"/>
<path d="M201.551 31.5789H190.368C189.932 31.5789 189.578 31.9323 189.578 32.3683V45.0511C189.578 45.4871 189.932 45.8405 190.368 45.8405H201.551C201.987 45.8405 202.341 45.4871 202.341 45.0511V32.3683C202.341 31.9323 201.987 31.5789 201.551 31.5789Z" fill="#00E1C6"/>
<path d="M214.313 45.8428H203.13C202.694 45.8428 202.34 46.1962 202.34 46.6322V59.315C202.34 59.751 202.694 60.1045 203.13 60.1045H214.313C214.75 60.1045 215.103 59.751 215.103 59.315V46.6322C215.103 46.1962 214.75 45.8428 214.313 45.8428Z" fill="#00E1C6"/>
<path d="M205.342 45.8431C205.342 45.8431 202.339 45.6554 202.339 42.8406C202.339 44.1542 201.213 45.8431 199.336 45.8431C201.401 45.8431 202.339 47.5319 202.339 49.0332C202.339 46.0308 205.342 45.8431 205.342 45.8431Z" fill="#00E1C6"/>
<path d="M218.107 60.1021C218.107 60.1021 215.104 59.9144 215.104 57.0996C215.104 58.4131 213.978 60.1021 212.101 60.1021C214.166 60.1021 215.104 61.7909 215.104 63.2922C215.104 60.2897 218.107 60.1021 218.107 60.1021Z" fill="#00E1C6"/>
<path d="M221.55 60.106H221.421C217.932 60.106 215.104 62.9336 215.104 66.4217V68.0518C215.104 71.54 217.932 74.3676 221.421 74.3676H221.55C225.039 74.3676 227.867 71.54 227.867 68.0518V66.4217C227.867 62.9336 225.039 60.106 221.55 60.106Z" fill="#00E1C6"/>
<path d="M241.417 31.5798H252.601C253.037 31.5798 253.39 31.9333 253.39 32.3693V45.052C253.39 45.4881 253.037 45.8415 252.601 45.8415H241.417C240.981 45.8415 240.628 45.4881 240.628 45.052V32.3693C240.628 31.9333 240.981 31.5798 241.417 31.5798Z" fill="#00E1C6"/>
<path d="M228.655 45.8435H239.839C240.275 45.8435 240.628 46.197 240.628 46.633V59.3157C240.628 59.7517 240.275 60.1052 239.839 60.1052H228.655C228.219 60.1052 227.865 59.7517 227.865 59.3157V46.633C227.865 46.197 228.219 45.8435 228.655 45.8435Z" fill="#00E1C6"/>
<path d="M237.625 45.8438C237.625 45.8438 240.627 45.6561 240.627 42.8413C240.627 44.1549 241.754 45.8438 243.63 45.8438C241.566 45.8438 240.627 47.5327 240.627 49.0339C240.627 46.0314 237.625 45.8438 237.625 45.8438Z" fill="#00E1C6"/>
<path d="M224.864 60.1029C224.864 60.1029 227.867 59.9152 227.867 57.1003C227.867 58.4139 228.993 60.1029 230.87 60.1029C228.806 60.1029 227.867 61.7917 227.867 63.293C227.867 60.2905 224.864 60.1029 224.864 60.1029Z" fill="#00E1C6"/>
<path d="M221.421 60.1064H221.549C225.038 60.1064 227.866 62.9341 227.866 66.4222V68.0523C227.866 71.5405 225.038 74.3681 221.549 74.3681H221.421C217.932 74.3681 215.103 71.5405 215.103 68.0523V66.4222C215.103 62.9341 217.932 60.1064 221.421 60.1064Z" fill="#00E1C6"/>
<path d="M201.551 102.888H190.368C189.932 102.888 189.578 102.535 189.578 102.099V89.416C189.578 88.98 189.932 88.6265 190.368 88.6265H201.551C201.987 88.6265 202.341 88.98 202.341 89.416V102.099C202.341 102.535 201.987 102.888 201.551 102.888Z" fill="#00E1C6"/>
<path d="M214.313 88.6287H203.13C202.694 88.6287 202.34 88.2752 202.34 87.8392V75.1565C202.34 74.7204 202.694 74.367 203.13 74.367H214.313C214.75 74.367 215.103 74.7204 215.103 75.1565V87.8392C215.103 88.2752 214.75 88.6287 214.313 88.6287Z" fill="#00E1C6"/>
<path d="M218.107 74.3691C218.107 74.3691 215.104 74.5567 215.104 77.3715C215.104 76.0579 213.978 74.3691 212.101 74.3691C214.166 74.3691 215.104 72.6801 215.104 71.179C215.104 74.1814 218.107 74.3691 218.107 74.3691Z" fill="#00E1C6"/>
<path d="M221.55 74.366H221.421C217.932 74.366 215.104 71.5383 215.104 68.0502V66.4201C215.104 62.932 217.932 60.1043 221.421 60.1043H221.55C225.039 60.1043 227.867 62.932 227.867 66.4201V68.0502C227.867 71.5383 225.039 74.366 221.55 74.366Z" fill="#00E1C6"/>
<path d="M241.417 102.888H252.6C253.036 102.888 253.39 102.535 253.39 102.099V89.416C253.39 88.98 253.036 88.6265 252.6 88.6265H241.417C240.98 88.6265 240.627 88.98 240.627 89.416V102.099C240.627 102.535 240.98 102.888 241.417 102.888Z" fill="#00E1C6"/>
<path d="M228.655 88.6287H239.839C240.275 88.6287 240.628 88.2752 240.628 87.8392V75.1564C240.628 74.7204 240.275 74.367 239.839 74.367H228.655C228.219 74.367 227.865 74.7204 227.865 75.1564V87.8392C227.865 88.2752 228.219 88.6287 228.655 88.6287Z" fill="#00E1C6"/>
<path d="M237.624 88.628C237.624 88.628 240.627 88.8159 240.627 91.6304C240.627 90.3175 241.754 88.628 243.63 88.628C241.566 88.628 240.627 86.9393 240.627 85.4377C240.627 88.4409 237.624 88.628 237.624 88.628Z" fill="#00E1C6"/>
<path d="M224.863 74.3691C224.863 74.3691 227.866 74.5567 227.866 77.3715C227.866 76.0579 228.992 74.3691 230.869 74.3691C228.804 74.3691 227.866 72.6801 227.866 71.179C227.866 74.1814 224.863 74.3691 224.863 74.3691Z" fill="#00E1C6"/>
<path d="M215.892 74.366H227.076C227.512 74.366 227.865 74.0125 227.865 73.5765V60.8938C227.865 60.4577 227.512 60.1043 227.076 60.1043H215.892C215.456 60.1043 215.102 60.4577 215.102 60.8938V73.5765C215.102 74.0125 215.456 74.366 215.892 74.366Z" fill="#00E1C6"/>
</svg>
