<svg preserveAspectRatio="none" width="100%" height="100%" overflow="visible" style="display: block;" viewBox="0 0 39 40" fill="none" xmlns="http://www.w3.org/2000/svg">
<g id="Group">
<path id="Vector" d="M1.9 13.3375H36.1875V38.1H38.0875V7.625H36.1875V11.425H1.9V7.625H2.98023e-08V38.1H1.9V13.3375Z" fill="var(--fill-0, #CCFE12)"/>
<path id="Vector_2" d="M36.1875 5.7125H34.2875V7.625H36.1875V5.7125Z" fill="var(--fill-0, #CCFE12)"/>
<path id="Vector_3" d="M36.1875 38.1H1.9V40H36.1875V38.1Z" fill="var(--fill-0, #CCFE12)"/>
<path id="Vector_4" d="M30.475 22.8625H26.6625V24.7625H24.7625V22.8625H20.95V24.7625H19.05V28.575H20.95V30.475H22.85V32.375H24.7625V34.2875H26.6625V32.375H28.5625V30.475H30.475V28.575H32.375V24.7625H30.475V22.8625Z" fill="var(--fill-0, #CCFE12)"/>
<path id="Vector_5" d="M30.475 17.1375H28.5625V19.05H30.475V17.1375Z" fill="var(--fill-0, #CCFE12)"/>
<path id="Vector_6" d="M22.85 17.1375H20.95V19.05H22.85V17.1375Z" fill="var(--fill-0, #CCFE12)"/>
<path id="Vector_7" d="M15.2375 32.375H13.325V34.2875H15.2375V32.375Z" fill="var(--fill-0, #CCFE12)"/>
<path id="Vector_8" d="M15.2375 24.7625H13.325V26.6625H15.2375V24.7625Z" fill="var(--fill-0, #CCFE12)"/>
<path id="Vector_9" d="M15.2375 17.1375H13.325V19.05H15.2375V17.1375Z" fill="var(--fill-0, #CCFE12)"/>
<path id="Vector_10" d="M7.6125 32.375H5.7125V34.2875H7.6125V32.375Z" fill="var(--fill-0, #CCFE12)"/>
<path id="Vector_11" d="M7.6125 24.7625H5.7125V26.6625H7.6125V24.7625Z" fill="var(--fill-0, #CCFE12)"/>
<path id="Vector_12" d="M7.6125 17.1375H5.7125V19.05H7.6125V17.1375Z" fill="var(--fill-0, #CCFE12)"/>
<path id="Vector_13" d="M9.525 5.7125V7.625H11.425V5.7125H26.6625V7.625H28.5625V5.7125H34.2875V3.8125H28.5625V0H26.6625V3.8125H11.425V0H9.525V3.8125H3.8125V5.7125H9.525Z" fill="var(--fill-0, #CCFE12)"/>
<path id="Vector_14" d="M3.8125 5.7125H1.9V7.625H3.8125V5.7125Z" fill="var(--fill-0, #CCFE12)"/>
</g>
</svg>
