<svg preserveAspectRatio="none" width="100%" height="100%" overflow="visible" style="display: block;" viewBox="0 0 40 40" fill="none" xmlns="http://www.w3.org/2000/svg">
<g id="Group">
<path id="Vector" d="M40 15.2375H38.0875V24.7625H40V15.2375Z" fill="var(--fill-0, #CCFE12)"/>
<path id="Vector_2" d="M38.0875 24.7625H36.1875V28.575H38.0875V24.7625Z" fill="var(--fill-0, #CCFE12)"/>
<path id="Vector_3" d="M38.0875 11.425H36.1875V15.2375H38.0875V11.425Z" fill="var(--fill-0, #CCFE12)"/>
<path id="Vector_4" d="M36.1875 28.575H34.2875V32.375H36.1875V28.575Z" fill="var(--fill-0, #CCFE12)"/>
<path id="Vector_5" d="M36.1875 7.625H34.2875V11.425H36.1875V7.625Z" fill="var(--fill-0, #CCFE12)"/>
<path id="Vector_6" d="M34.2875 32.375H32.375V34.2875H34.2875V32.375Z" fill="var(--fill-0, #CCFE12)"/>
<path id="Vector_7" d="M34.2875 5.7125H32.375V7.625H34.2875V5.7125Z" fill="var(--fill-0, #CCFE12)"/>
<path id="Vector_8" d="M32.375 34.2875H28.5625V36.1875H32.375V34.2875Z" fill="var(--fill-0, #CCFE12)"/>
<path id="Vector_9" d="M32.375 3.8125H28.5625V5.7125H32.375V3.8125Z" fill="var(--fill-0, #CCFE12)"/>
<path id="Vector_10" d="M17.1375 22.8625H19.05V24.7625H20.95V22.8625H22.85V20.95H30.475V19.05H22.85V17.1375H20.95V5.7125H19.05V17.1375H17.1375V19.05H15.2375V20.95H17.1375V22.8625Z" fill="var(--fill-0, #CCFE12)"/>
<path id="Vector_11" d="M28.5625 36.1875H24.7625V38.1H28.5625V36.1875Z" fill="var(--fill-0, #CCFE12)"/>
<path id="Vector_12" d="M28.5625 1.9H24.7625V3.8125H28.5625V1.9Z" fill="var(--fill-0, #CCFE12)"/>
<path id="Vector_13" d="M24.7625 38.1H15.2375V40H24.7625V38.1Z" fill="var(--fill-0, #CCFE12)"/>
<path id="Vector_14" d="M24.7625 0H15.2375V1.9H24.7625V0Z" fill="var(--fill-0, #CCFE12)"/>
<path id="Vector_15" d="M15.2375 36.1875H11.425V38.1H15.2375V36.1875Z" fill="var(--fill-0, #CCFE12)"/>
<path id="Vector_16" d="M15.2375 1.9H11.425V3.8125H15.2375V1.9Z" fill="var(--fill-0, #CCFE12)"/>
<path id="Vector_17" d="M11.425 34.2875H7.6125V36.1875H11.425V34.2875Z" fill="var(--fill-0, #CCFE12)"/>
<path id="Vector_18" d="M11.425 3.8125H7.6125V5.7125H11.425V3.8125Z" fill="var(--fill-0, #CCFE12)"/>
<path id="Vector_19" d="M7.6125 32.375H5.7125V34.2875H7.6125V32.375Z" fill="var(--fill-0, #CCFE12)"/>
<path id="Vector_20" d="M7.6125 5.7125H5.7125V7.625H7.6125V5.7125Z" fill="var(--fill-0, #CCFE12)"/>
<path id="Vector_21" d="M5.7125 28.575H3.8125V32.375H5.7125V28.575Z" fill="var(--fill-0, #CCFE12)"/>
<path id="Vector_22" d="M5.7125 7.625H3.8125V11.425H5.7125V7.625Z" fill="var(--fill-0, #CCFE12)"/>
<path id="Vector_23" d="M3.8125 24.7625H1.9V28.575H3.8125V24.7625Z" fill="var(--fill-0, #CCFE12)"/>
<path id="Vector_24" d="M3.8125 11.425H1.9V15.2375H3.8125V11.425Z" fill="var(--fill-0, #CCFE12)"/>
<path id="Vector_25" d="M1.9 15.2375H0V24.7625H1.9V15.2375Z" fill="var(--fill-0, #CCFE12)"/>
</g>
</svg>
