<svg preserveAspectRatio="none" width="100%" height="100%" overflow="visible" style="display: block;" viewBox="0 0 40 40" fill="none" xmlns="http://www.w3.org/2000/svg">
<g id="Group">
<path id="Vector" d="M28.5625 9.525V13.3375H26.6625V19.05H28.5625V20.95H30.475V22.8625H24.7625V24.7625H22.85V26.6625H28.5625V30.475H26.6625V34.2875H28.5625V36.1875H32.375V34.2875H34.2875V32.375H36.1875V28.575H38.0875V24.7625H40V15.2375H38.0875V11.425H36.1875V7.625H34.2875V9.525H28.5625Z" fill="var(--fill-0, #CCFE12)"/>
<path id="Vector_2" d="M34.2875 5.7125H32.375V7.625H34.2875V5.7125Z" fill="var(--fill-0, #CCFE12)"/>
<path id="Vector_3" d="M32.375 3.8125H28.5625V5.7125H32.375V3.8125Z" fill="var(--fill-0, #CCFE12)"/>
<path id="Vector_4" d="M28.5625 36.1875H24.7625V38.1H28.5625V36.1875Z" fill="var(--fill-0, #CCFE12)"/>
<path id="Vector_5" d="M28.5625 1.9H24.7625V3.8125H28.5625V1.9Z" fill="var(--fill-0, #CCFE12)"/>
<path id="Vector_6" d="M20.95 36.1875H19.05V34.2875H13.325V36.1875H11.425V38.1H15.2375V40H24.7625V38.1H20.95V36.1875Z" fill="var(--fill-0, #CCFE12)"/>
<path id="Vector_7" d="M24.7625 0H15.2375V1.9H24.7625V0Z" fill="var(--fill-0, #CCFE12)"/>
<path id="Vector_8" d="M13.325 20.95H15.2375V22.8625H17.1375V17.1375H13.325V20.95Z" fill="var(--fill-0, #CCFE12)"/>
<path id="Vector_9" d="M11.425 34.2875H7.6125V36.1875H11.425V34.2875Z" fill="var(--fill-0, #CCFE12)"/>
<path id="Vector_10" d="M7.6125 32.375H5.7125V34.2875H7.6125V32.375Z" fill="var(--fill-0, #CCFE12)"/>
<path id="Vector_11" d="M3.8125 28.575V32.375H5.7125V30.475H7.6125V28.575H9.525V22.8625H7.6125V20.95H5.7125V19.05H3.8125V17.1375H5.7125V15.2375H11.425V13.3375H13.325V11.425H15.2375V13.3375H17.1375V11.425H19.05V7.625H17.1375V5.7125H13.325V3.8125H15.2375V1.9H11.425V3.8125H7.6125V5.7125H5.7125V7.625H3.8125V11.425H1.9V15.2375H0V24.7625H1.9V28.575H3.8125Z" fill="var(--fill-0, #CCFE12)"/>
</g>
</svg>
