<svg preserveAspectRatio="none" width="100%" height="100%" overflow="visible" style="display: block;" viewBox="0 0 62 59" fill="none" xmlns="http://www.w3.org/2000/svg">
<g id="Group">
<path id="Vector" d="M61.9973 17.2227H58.5391V41.3398H61.9973V17.2227Z" fill="var(--fill-0, #CCFE12)"/>
<path id="Vector_2" d="M58.5411 41.3398H55.1055V44.7755H58.5411V41.3398Z" fill="var(--fill-0, #CCFE12)"/>
<path id="Vector_3" d="M58.5411 13.7881H55.1055V17.2237H58.5411V13.7881Z" fill="var(--fill-0, #CCFE12)"/>
<path id="Vector_4" d="M55.1048 17.2227H48.2109V20.6583H55.1048V17.2227Z" fill="var(--fill-0, #CCFE12)"/>
<path id="Vector_5" d="M55.1048 44.7764H48.2109V48.2346H55.1048V44.7764Z" fill="var(--fill-0, #CCFE12)"/>
<path id="Vector_6" d="M51.6705 13.7874V10.3292H48.2123V6.89355H41.341V10.3292H37.8828V13.7874H41.341V17.223H48.2123V13.7874H51.6705Z" fill="var(--fill-0, #CCFE12)"/>
<path id="Vector_7" d="M48.215 20.6592H41.3438V24.1174H48.215V20.6592Z" fill="var(--fill-0, #CCFE12)"/>
<path id="Vector_8" d="M48.215 48.2344H41.3438V51.67H48.215V48.2344Z" fill="var(--fill-0, #CCFE12)"/>
<path id="Vector_9" d="M34.4485 58.5637V55.1055H41.3424V51.6699H34.4485V27.5527H27.5547V31.011H30.9903V55.1055H27.5547V58.5637H34.4485Z" fill="var(--fill-0, #CCFE12)"/>
<path id="Vector_10" d="M41.3392 24.1172H34.4453V27.5528H41.3392V24.1172Z" fill="var(--fill-0, #CCFE12)"/>
<path id="Vector_11" d="M34.4467 20.6593H37.8823V17.2237H34.4467V13.7881H27.5528V17.2237H24.1172V20.6593H27.5528V24.1175H34.4467V20.6593Z" fill="var(--fill-0, #CCFE12)"/>
<path id="Vector_12" d="M27.5528 0V3.45822H24.1172V6.89384H27.5528V10.3295H34.4467V6.89384H37.8823V3.45822H34.4467V0H27.5528Z" fill="var(--fill-0, #CCFE12)"/>
<path id="Vector_13" d="M27.5501 51.6699H20.6562V55.1055H27.5501V51.6699Z" fill="var(--fill-0, #CCFE12)"/>
<path id="Vector_14" d="M27.5501 24.1172H20.6562V27.5528H27.5501V24.1172Z" fill="var(--fill-0, #CCFE12)"/>
<path id="Vector_15" d="M20.6603 48.2344H13.7891V51.67H20.6603V48.2344Z" fill="var(--fill-0, #CCFE12)"/>
<path id="Vector_16" d="M20.6576 13.7874H24.1158V10.3292H20.6576V6.89355H13.7864V10.3292H10.3281V13.7874H13.7864V17.223H20.6576V13.7874Z" fill="var(--fill-0, #CCFE12)"/>
<path id="Vector_17" d="M20.6603 20.6592H13.7891V24.1174H20.6603V20.6592Z" fill="var(--fill-0, #CCFE12)"/>
<path id="Vector_18" d="M13.7845 44.7764H6.89062V48.2346H13.7845V44.7764Z" fill="var(--fill-0, #CCFE12)"/>
<path id="Vector_19" d="M13.7845 17.2227H6.89062V20.6583H13.7845V17.2227Z" fill="var(--fill-0, #CCFE12)"/>
<path id="Vector_20" d="M6.89573 41.3398H3.4375V44.7755H6.89573V41.3398Z" fill="var(--fill-0, #CCFE12)"/>
<path id="Vector_21" d="M6.89573 13.7881H3.4375V17.2237H6.89573V13.7881Z" fill="var(--fill-0, #CCFE12)"/>
<path id="Vector_22" d="M3.43563 17.2227H0V41.3398H3.43563V17.2227Z" fill="var(--fill-0, #CCFE12)"/>
</g>
</svg>
