<svg preserveAspectRatio="none" width="100%" height="100%" overflow="visible" style="display: block;" viewBox="0 0 62 62" fill="none" xmlns="http://www.w3.org/2000/svg">
<g id="Group">
<path id="Vector" d="M62 44.2913H56.0906V50.2006H62V44.2913Z" fill="var(--fill-0, #CCFE12)"/>
<path id="Vector_2" d="M56.0906 50.2006H53.1456V53.1456H56.0906V50.2006Z" fill="var(--fill-0, #CCFE12)"/>
<path id="Vector_3" d="M56.0906 32.4725V23.6181H59.055V14.7638H50.2006V23.6181H53.1456V32.4725H56.0906Z" fill="var(--fill-0, #CCFE12)"/>
<path id="Vector_4" d="M53.1456 53.1456H50.2006V56.11H53.1456V53.1456Z" fill="var(--fill-0, #CCFE12)"/>
<path id="Vector_5" d="M53.1456 32.4725H50.2006V35.4369H53.1456V32.4725Z" fill="var(--fill-0, #CCFE12)"/>
<path id="Vector_6" d="M50.2006 56.11H47.2362V62H50.2006V56.11Z" fill="var(--fill-0, #CCFE12)"/>
<path id="Vector_7" d="M50.2006 35.4369H47.2362V38.3819H50.2006V35.4369Z" fill="var(--fill-0, #CCFE12)"/>
<path id="Vector_8" d="M47.2363 38.3819H44.2913V41.3463H47.2363V38.3819Z" fill="var(--fill-0, #CCFE12)"/>
<path id="Vector_9" d="M44.2913 41.3463H41.3269V62H44.2913V41.3463Z" fill="var(--fill-0, #CCFE12)"/>
<path id="Vector_10" d="M44.2913 32.4725V8.85438H47.2362V0H38.3819V8.85438H41.3269V32.4725H44.2913ZM41.3269 2.96437H44.2913V5.90937H41.3269V2.96437Z" fill="var(--fill-0, #CCFE12)"/>
<path id="Vector_11" d="M41.3269 32.4725H38.3819V35.4369H41.3269V32.4725Z" fill="var(--fill-0, #CCFE12)"/>
<path id="Vector_12" d="M38.3819 35.4369H35.4369V62H38.3819V35.4369Z" fill="var(--fill-0, #CCFE12)"/>
<path id="Vector_13" d="M26.5631 29.5275H29.5275V62H32.4725V29.5275H35.4369V20.6731H26.5631V29.5275Z" fill="var(--fill-0, #CCFE12)"/>
<path id="Vector_14" d="M26.5631 35.4369H23.6181V62H26.5631V35.4369Z" fill="var(--fill-0, #CCFE12)"/>
<path id="Vector_15" d="M23.6181 32.4725H20.6731V35.4369H23.6181V32.4725Z" fill="var(--fill-0, #CCFE12)"/>
<path id="Vector_16" d="M20.6731 47.2362H17.7088V62H20.6731V47.2362Z" fill="var(--fill-0, #CCFE12)"/>
<path id="Vector_17" d="M20.6731 17.7281H23.6181V8.85438H14.7638V17.7281H17.7088V32.4725H20.6731V17.7281Z" fill="var(--fill-0, #CCFE12)"/>
<path id="Vector_18" d="M17.7088 44.2913H14.7638V47.2363H17.7088V44.2913Z" fill="var(--fill-0, #CCFE12)"/>
<path id="Vector_19" d="M14.7637 56.11H11.8187V62H14.7637V56.11Z" fill="var(--fill-0, #CCFE12)"/>
<path id="Vector_20" d="M14.7637 41.3463H11.8187V44.2913H14.7637V41.3463Z" fill="var(--fill-0, #CCFE12)"/>
<path id="Vector_21" d="M14.7637 38.3819V29.5275H5.90937V38.3819H8.85438V41.3463H11.8187V38.3819H14.7637ZM8.85438 35.4369V32.4725H11.8187V35.4369H8.85438Z" fill="var(--fill-0, #CCFE12)"/>
<path id="Vector_22" d="M11.8188 53.1456H8.85438V56.11H11.8188V53.1456Z" fill="var(--fill-0, #CCFE12)"/>
<path id="Vector_23" d="M8.85438 50.2006H5.90937V53.1456H8.85438V50.2006Z" fill="var(--fill-0, #CCFE12)"/>
<path id="Vector_24" d="M5.90937 44.2913H0V50.2006H5.90937V44.2913Z" fill="var(--fill-0, #CCFE12)"/>
</g>
</svg>
