<svg preserveAspectRatio="none" width="100%" height="100%" overflow="visible" style="display: block;" viewBox="0 0 60 62" fill="none" xmlns="http://www.w3.org/2000/svg">
<g id="Group">
<path id="Vector" d="M59.055 47.2362H56.0906V50.1812H59.055V47.2362Z" fill="var(--fill-0, #CCFE12)"/>
<path id="Vector_2" d="M56.0906 44.2719H53.1456V47.2362H56.0906V44.2719Z" fill="var(--fill-0, #CCFE12)"/>
<path id="Vector_3" d="M56.0906 50.1813H53.1456V53.1456H56.0906V50.1813Z" fill="var(--fill-0, #CCFE12)"/>
<path id="Vector_4" d="M53.1456 41.3269H50.1813V44.2719H53.1456V41.3269Z" fill="var(--fill-0, #CCFE12)"/>
<path id="Vector_5" d="M53.1456 53.1456H50.1813V56.0906H53.1456V53.1456Z" fill="var(--fill-0, #CCFE12)"/>
<path id="Vector_6" d="M50.1812 38.3819H47.2362V41.3269H50.1812V38.3819Z" fill="var(--fill-0, #CCFE12)"/>
<path id="Vector_7" d="M50.1812 50.1813H47.2362V53.1456H50.1812V50.1813Z" fill="var(--fill-0, #CCFE12)"/>
<path id="Vector_8" d="M47.2362 35.4175H44.2912V38.3819H47.2362V35.4175Z" fill="var(--fill-0, #CCFE12)"/>
<path id="Vector_9" d="M47.2362 47.2362H44.2912V50.1812H47.2362V47.2362Z" fill="var(--fill-0, #CCFE12)"/>
<path id="Vector_10" d="M44.2913 32.4725H41.3269V35.4175H44.2913V32.4725Z" fill="var(--fill-0, #CCFE12)"/>
<path id="Vector_11" d="M44.2913 44.2719H41.3269V47.2362H44.2913V44.2719Z" fill="var(--fill-0, #CCFE12)"/>
<path id="Vector_12" d="M38.3819 41.3269V38.3819H35.4369V41.3269H38.3625V44.2719H41.3269V41.3269H38.3819Z" fill="var(--fill-0, #CCFE12)"/>
<path id="Vector_13" d="M2.945 2.945H0V59.0356H2.945V62H38.3625V59.0356H41.3269V50.1812H38.3625V56.0906H2.945V5.89H11.7994V8.85438H29.5081V5.89H38.3625V23.6181H41.3269V2.945H38.3625V0H2.945V2.945ZM20.6537 2.945H26.5631V5.89H20.6537V2.945ZM14.7444 2.945H17.7087V5.89H14.7444V2.945Z" fill="var(--fill-0, #CCFE12)"/>
<path id="Vector_14" d="M35.4369 35.4175H32.4725V38.3819H35.4369V35.4175Z" fill="var(--fill-0, #CCFE12)"/>
<path id="Vector_15" d="M35.4369 14.7637H29.5275V20.6537H35.4369V14.7637Z" fill="var(--fill-0, #CCFE12)"/>
<path id="Vector_16" d="M38.3625 29.5081V32.4725H41.3269V29.5081H38.3819V26.5631H29.5275V35.4175H32.4725V29.5081H38.3625Z" fill="var(--fill-0, #CCFE12)"/>
<path id="Vector_17" d="M23.6181 14.7637H17.7087V20.6537H23.6181V14.7637Z" fill="var(--fill-0, #CCFE12)"/>
<path id="Vector_18" d="M23.6181 47.2362V44.2719H26.5631V41.3269H23.6181V38.3819H20.6731V41.3269H17.7087V44.2719H20.6731V47.2362H23.6181Z" fill="var(--fill-0, #CCFE12)"/>
<path id="Vector_19" d="M23.6181 26.5631H17.7087V32.4725H23.6181V26.5631Z" fill="var(--fill-0, #CCFE12)"/>
<path id="Vector_20" d="M11.8188 14.7637H5.90938V20.6537H11.8188V14.7637Z" fill="var(--fill-0, #CCFE12)"/>
<path id="Vector_21" d="M11.8188 26.5631H5.90938V32.4725H11.8188V26.5631Z" fill="var(--fill-0, #CCFE12)"/>
<path id="Vector_22" d="M11.8188 38.3819H5.90938V44.2719H11.8188V38.3819Z" fill="var(--fill-0, #CCFE12)"/>
</g>
</svg>
