<svg preserveAspectRatio="none" width="100%" height="100%" overflow="visible" style="display: block;" viewBox="0 0 62 62" fill="none" xmlns="http://www.w3.org/2000/svg">
<g id="Group">
<path id="Vector" d="M59.055 0H41.3269V2.96437H38.3819V20.6731H2.945V23.6181H38.3819V32.4919H41.3269V44.2912H2.945V23.6181H0V50.2006H2.945V47.2556H41.3269V50.2006H44.2913V35.4369H59.055V32.4919H62V2.96437H59.055V0ZM47.2362 2.96437H53.1456V5.90937H47.2362V2.96437ZM59.055 29.5275H41.3269V5.90937H44.2913V8.87375H56.0906V5.90937H59.055V29.5275Z" fill="var(--fill-0, #CCFE12)"/>
<path id="Vector_2" d="M56.0906 17.7281H53.1456V20.6731H56.0906V17.7281Z" fill="var(--fill-0, #CCFE12)"/>
<path id="Vector_3" d="M56.0906 11.8187H53.1456V14.7637H56.0906V11.8187Z" fill="var(--fill-0, #CCFE12)"/>
<path id="Vector_4" d="M53.1456 20.6731H47.2362V23.6181H53.1456V20.6731Z" fill="var(--fill-0, #CCFE12)"/>
<path id="Vector_5" d="M47.2362 17.7281H44.2913V20.6731H47.2362V17.7281Z" fill="var(--fill-0, #CCFE12)"/>
<path id="Vector_6" d="M47.2362 11.8187H44.2913V14.7637H47.2362V11.8187Z" fill="var(--fill-0, #CCFE12)"/>
<path id="Vector_7" d="M2.945 50.2006V53.1456H14.7638V56.11H17.7088V53.1456H26.5631V56.11H29.5275V53.1456H41.3269V50.2006H2.945Z" fill="var(--fill-0, #CCFE12)"/>
<path id="Vector_8" d="M38.3819 32.4919H35.4369V35.4369H38.3819V32.4919Z" fill="var(--fill-0, #CCFE12)"/>
<path id="Vector_9" d="M35.4369 35.4369H32.4725V38.3819H35.4369V35.4369Z" fill="var(--fill-0, #CCFE12)"/>
<path id="Vector_10" d="M35.4369 29.5275H32.4725V32.4919H35.4369V29.5275Z" fill="var(--fill-0, #CCFE12)"/>
<path id="Vector_11" d="M32.4725 38.3819H29.5275V41.3463H32.4725V38.3819Z" fill="var(--fill-0, #CCFE12)"/>
<path id="Vector_12" d="M32.4725 26.5825H29.5275V29.5275H32.4725V26.5825Z" fill="var(--fill-0, #CCFE12)"/>
<path id="Vector_13" d="M14.7637 59.055V56.11H11.8187V62H32.4725V56.11H29.5275V59.055H14.7637Z" fill="var(--fill-0, #CCFE12)"/>
<path id="Vector_14" d="M26.5631 26.5825H23.6181V32.4919H26.5631V26.5825Z" fill="var(--fill-0, #CCFE12)"/>
<path id="Vector_15" d="M23.6181 32.4919H20.6731V35.4369H23.6181V32.4919Z" fill="var(--fill-0, #CCFE12)"/>
<path id="Vector_16" d="M20.6731 35.4369H17.7088V41.3463H20.6731V35.4369Z" fill="var(--fill-0, #CCFE12)"/>
<path id="Vector_17" d="M14.7637 38.3819H11.8187V41.3463H14.7637V38.3819Z" fill="var(--fill-0, #CCFE12)"/>
<path id="Vector_18" d="M14.7637 26.5825H11.8187V29.5275H14.7637V26.5825Z" fill="var(--fill-0, #CCFE12)"/>
<path id="Vector_19" d="M11.8188 35.4369H8.85438V38.3819H11.8188V35.4369Z" fill="var(--fill-0, #CCFE12)"/>
<path id="Vector_20" d="M11.8188 29.5275H8.85438V32.4919H11.8188V29.5275Z" fill="var(--fill-0, #CCFE12)"/>
<path id="Vector_21" d="M8.85438 32.4919H5.90937V35.4369H8.85438V32.4919Z" fill="var(--fill-0, #CCFE12)"/>
</g>
</svg>
